<svg width="155" height="60" viewBox="0 0 155 60" fill="none" xmlns="http://www.w3.org/2000/svg">
<path d="M5.20312 11.3672H18.6328C22.5547 11.3672 25.9609 11.7891 28.8516 12.6328C31.7422 13.4766 34.1328 14.6875 36.0234 16.2656C37.9297 17.8281 39.3438 19.7344 40.2656 21.9844C41.2031 24.2188 41.6719 26.7344 41.6719 29.5312C41.6719 32.1875 41.2109 34.6484 40.2891 36.9141C39.3672 39.1641 37.9609 41.1172 36.0703 42.7734C34.1797 44.4141 31.7891 45.7031 28.8984 46.6406C26.0078 47.5625 22.6016 48.0234 18.6797 48.0234L5.20312 48V11.3672ZM20.4609 41.5781C22.6797 41.5781 24.625 41.2969 26.2969 40.7344C27.9688 40.1562 29.3594 39.3438 30.4688 38.2969C31.5938 37.25 32.4375 35.9844 33 34.5C33.5625 33.0156 33.8438 31.3594 33.8438 29.5312C33.8438 27.7344 33.5625 26.1172 33 24.6797C32.4375 23.2266 31.5938 22 30.4688 21C29.3594 19.9844 27.9688 19.2031 26.2969 18.6562C24.625 18.1094 22.6797 17.8359 20.4609 17.8359H12.6328V41.5781H20.4609Z" fill="#212529"/>
<g filter="url(#filter0_b_2_55)">
<circle cx="46" cy="35" r="13" fill="#E63946" fill-opacity="0.76"/>
<circle cx="46" cy="35" r="16" stroke="white" stroke-width="6"/>
</g>
<path d="M67.5078 25.5469H60.8281V20.3438H67.5078V11.7422H74.4453V20.3438H81.125V25.5469H74.4453V48H67.5078V25.5469ZM85.3531 48V16.08H87.6571V45.84H97.0651V48H85.3531ZM121.015 48V42.48C119.799 44.464 118.359 45.92 116.695 46.848C115.063 47.776 113.191 48.24 111.079 48.24C109.415 48.24 107.847 47.936 106.375 47.328C104.935 46.72 103.655 45.856 102.535 44.736C101.415 43.648 100.535 42.368 99.8945 40.896C99.2865 39.392 98.9825 37.824 98.9825 36.192C98.9825 34.56 99.2865 33.008 99.8945 31.536C100.535 30.032 101.415 28.72 102.535 27.6C103.655 26.48 104.935 25.616 106.375 25.008C107.847 24.4 109.415 24.096 111.079 24.096C113.383 24.096 115.367 24.544 117.031 25.44C118.727 26.336 120.055 27.664 121.015 29.424V24.672H123.223V48H121.015ZM111.079 26.256C109.735 26.256 108.439 26.512 107.191 27.024C105.975 27.536 104.919 28.24 104.023 29.136C103.127 30.032 102.423 31.104 101.911 32.352C101.399 33.568 101.143 34.848 101.143 36.192C101.143 37.536 101.399 38.816 101.911 40.032C102.423 41.248 103.127 42.304 104.023 43.2C104.919 44.096 105.975 44.8 107.191 45.312C108.439 45.824 109.735 46.08 111.079 46.08C112.391 46.08 113.655 45.824 114.871 45.312C116.087 44.8 117.143 44.096 118.039 43.2C118.935 42.304 119.639 41.248 120.151 40.032C120.695 38.816 120.967 37.536 120.967 36.192C120.967 34.848 120.711 33.568 120.199 32.352C119.687 31.104 118.983 30.032 118.087 29.136C117.191 28.24 116.135 27.536 114.919 27.024C113.703 26.512 112.423 26.256 111.079 26.256ZM140.201 48.24C137.929 48.24 135.945 47.84 134.249 47.04C132.553 46.24 131.177 44.896 130.121 43.008V48H128.009V16.128H130.121V29.664C131.209 27.744 132.569 26.368 134.201 25.536C135.865 24.672 137.865 24.24 140.201 24.24C141.833 24.24 143.401 24.56 144.905 25.2C146.409 25.84 147.705 26.704 148.793 27.792C149.913 28.912 150.777 30.208 151.385 31.68C152.025 33.12 152.345 34.64 152.345 36.24C152.345 37.84 152.025 39.376 151.385 40.848C150.777 42.288 149.913 43.568 148.793 44.688C147.705 45.776 146.409 46.64 144.905 47.28C143.401 47.92 141.833 48.24 140.201 48.24ZM140.201 26.448C138.857 26.448 137.577 26.704 136.361 27.216C135.177 27.728 134.121 28.432 133.193 29.328C132.265 30.224 131.529 31.28 130.985 32.496C130.473 33.68 130.217 34.928 130.217 36.24C130.217 37.552 130.473 38.816 130.985 40.032C131.529 41.248 132.249 42.304 133.145 43.2C134.041 44.096 135.097 44.8 136.313 45.312C137.561 45.824 138.857 46.08 140.201 46.08C141.545 46.08 142.825 45.824 144.041 45.312C145.257 44.8 146.313 44.096 147.209 43.2C148.105 42.304 148.809 41.248 149.321 40.032C149.865 38.816 150.137 37.552 150.137 36.24C150.137 34.928 149.881 33.68 149.369 32.496C148.857 31.312 148.137 30.256 147.209 29.328C146.313 28.432 145.257 27.728 144.041 27.216C142.825 26.704 141.545 26.448 140.201 26.448Z" fill="#212529"/>
<defs>
<filter id="filter0_b_2_55" x="25.8" y="14.8" width="40.4" height="40.4" filterUnits="userSpaceOnUse" color-interpolation-filters="sRGB">
<feFlood flood-opacity="0" result="BackgroundImageFix"/>
<feGaussianBlur in="BackgroundImageFix" stdDeviation="0.6"/>
<feComposite in2="SourceAlpha" operator="in" result="effect1_backgroundBlur_2_55"/>
<feBlend mode="normal" in="SourceGraphic" in2="effect1_backgroundBlur_2_55" result="shape"/>
</filter>
</defs>
</svg>
