<svg width="194" height="100" viewBox="0 0 194 100" fill="none" xmlns="http://www.w3.org/2000/svg">
<path d="M24.2031 31.3672H37.6328C41.5547 31.3672 44.9609 31.7891 47.8516 32.6328C50.7422 33.4766 53.1328 34.6875 55.0234 36.2656C56.9297 37.8281 58.3438 39.7344 59.2656 41.9844C60.2031 44.2188 60.6719 46.7344 60.6719 49.5312C60.6719 52.1875 60.2109 54.6484 59.2891 56.9141C58.3672 59.1641 56.9609 61.1172 55.0703 62.7734C53.1797 64.4141 50.7891 65.7031 47.8984 66.6406C45.0078 67.5625 41.6016 68.0234 37.6797 68.0234L24.2031 68V31.3672ZM39.4609 61.5781C41.6797 61.5781 43.625 61.2969 45.2969 60.7344C46.9688 60.1562 48.3594 59.3438 49.4688 58.2969C50.5938 57.25 51.4375 55.9844 52 54.5C52.5625 53.0156 52.8438 51.3594 52.8438 49.5312C52.8438 47.7344 52.5625 46.1172 52 44.6797C51.4375 43.2266 50.5938 42 49.4688 41C48.3594 39.9844 46.9688 39.2031 45.2969 38.6562C43.625 38.1094 41.6797 37.8359 39.4609 37.8359H31.6328V61.5781H39.4609Z" fill="#212529"/>
<g filter="url(#filter0_b_2_53)">
<circle cx="65" cy="55" r="13" fill="#E63946" fill-opacity="0.76"/>
<circle cx="65" cy="55" r="16" stroke="#F8F9FA" stroke-width="6"/>
</g>
<path d="M86.5078 45.5469H79.8281V40.3438H86.5078V31.7422H93.4453V40.3438H100.125V45.5469H93.4453V68H86.5078V45.5469ZM104.353 68V36.08H106.657V65.84H116.065V68H104.353ZM140.015 68V62.48C138.799 64.464 137.359 65.92 135.695 66.848C134.063 67.776 132.191 68.24 130.079 68.24C128.415 68.24 126.847 67.936 125.375 67.328C123.935 66.72 122.655 65.856 121.535 64.736C120.415 63.648 119.535 62.368 118.895 60.896C118.287 59.392 117.983 57.824 117.983 56.192C117.983 54.56 118.287 53.008 118.895 51.536C119.535 50.032 120.415 48.72 121.535 47.6C122.655 46.48 123.935 45.616 125.375 45.008C126.847 44.4 128.415 44.096 130.079 44.096C132.383 44.096 134.367 44.544 136.031 45.44C137.727 46.336 139.055 47.664 140.015 49.424V44.672H142.223V68H140.015ZM130.079 46.256C128.735 46.256 127.439 46.512 126.191 47.024C124.975 47.536 123.919 48.24 123.023 49.136C122.127 50.032 121.423 51.104 120.911 52.352C120.399 53.568 120.143 54.848 120.143 56.192C120.143 57.536 120.399 58.816 120.911 60.032C121.423 61.248 122.127 62.304 123.023 63.2C123.919 64.096 124.975 64.8 126.191 65.312C127.439 65.824 128.735 66.08 130.079 66.08C131.391 66.08 132.655 65.824 133.871 65.312C135.087 64.8 136.143 64.096 137.039 63.2C137.935 62.304 138.639 61.248 139.151 60.032C139.695 58.816 139.967 57.536 139.967 56.192C139.967 54.848 139.711 53.568 139.199 52.352C138.687 51.104 137.983 50.032 137.087 49.136C136.191 48.24 135.135 47.536 133.919 47.024C132.703 46.512 131.423 46.256 130.079 46.256ZM159.201 68.24C156.929 68.24 154.945 67.84 153.249 67.04C151.553 66.24 150.177 64.896 149.121 63.008V68H147.009V36.128H149.121V49.664C150.209 47.744 151.569 46.368 153.201 45.536C154.865 44.672 156.865 44.24 159.201 44.24C160.833 44.24 162.401 44.56 163.905 45.2C165.409 45.84 166.705 46.704 167.793 47.792C168.913 48.912 169.777 50.208 170.385 51.68C171.025 53.12 171.345 54.64 171.345 56.24C171.345 57.84 171.025 59.376 170.385 60.848C169.777 62.288 168.913 63.568 167.793 64.688C166.705 65.776 165.409 66.64 163.905 67.28C162.401 67.92 160.833 68.24 159.201 68.24ZM159.201 46.448C157.857 46.448 156.577 46.704 155.361 47.216C154.177 47.728 153.121 48.432 152.193 49.328C151.265 50.224 150.529 51.28 149.985 52.496C149.473 53.68 149.217 54.928 149.217 56.24C149.217 57.552 149.473 58.816 149.985 60.032C150.529 61.248 151.249 62.304 152.145 63.2C153.041 64.096 154.097 64.8 155.313 65.312C156.561 65.824 157.857 66.08 159.201 66.08C160.545 66.08 161.825 65.824 163.041 65.312C164.257 64.8 165.313 64.096 166.209 63.2C167.105 62.304 167.809 61.248 168.321 60.032C168.865 58.816 169.137 57.552 169.137 56.24C169.137 54.928 168.881 53.68 168.369 52.496C167.857 51.312 167.137 50.256 166.209 49.328C165.313 48.432 164.257 47.728 163.041 47.216C161.825 46.704 160.545 46.448 159.201 46.448Z" fill="#212529"/>
<defs>
<filter id="filter0_b_2_53" x="44.8" y="34.8" width="40.4" height="40.4" filterUnits="userSpaceOnUse" color-interpolation-filters="sRGB">
<feFlood flood-opacity="0" result="BackgroundImageFix"/>
<feGaussianBlur in="BackgroundImageFix" stdDeviation="0.6"/>
<feComposite in2="SourceAlpha" operator="in" result="effect1_backgroundBlur_2_53"/>
<feBlend mode="normal" in="SourceGraphic" in2="effect1_backgroundBlur_2_53" result="shape"/>
</filter>
</defs>
</svg>
